<svg xmlns="http://www.w3.org/2000/svg" version="1.1" viewBox="-5.0 -10.0 110.0 135.0">
<path fill="#007190" d="m93.77 43.77-4.1875-4.1875-7.457 7.457h-16.938c-0.39453-2.0625-1.207-3.9805-2.3555-5.668l11.98-11.98h10.562v-5.9375h-8.8125v-8.8125h-5.9375v10.562l-11.98 11.98c-1.6875-1.1445-3.6055-1.9375-5.668-2.3555v-16.938l7.457-7.457-4.1875-4.1875-6.2305 6.2305-6.2305-6.2305-4.1875 4.1875 7.457 7.457v16.938c-2.0625 0.39453-3.9805 1.207-5.668 2.3555l-11.98-11.98v-10.562h-5.9375v8.8125h-8.8125v5.9375h10.562l11.98 11.98c-1.1445 1.6875-1.9375 3.6055-2.3555 5.668h-16.938l-7.457-7.457-4.1875 4.1875 6.2305 6.2305-6.2305 6.2305 4.1875 4.1875 7.457-7.457h16.938c0.39453 2.0625 1.207 3.9805 2.3555 5.668l-11.98 11.98h-10.562v5.9375h8.8125v8.8125h5.9375v-10.562l11.98-11.98c1.6875 1.1445 3.6055 1.9375 5.668 2.3555v16.938l-7.457 7.457 4.1875 4.1875 6.2305-6.2305 6.2305 6.2305 4.1875-4.1875-7.457-7.457v-16.938c2.0625-0.39453 3.9805-1.207 5.668-2.3555l11.98 11.98v10.562h5.9375v-8.8125h8.8125v-5.9375h-10.562l-11.98-11.98c1.1445-1.6875 1.9375-3.6055 2.3555-5.668h16.938l7.457 7.457 4.1875-4.1875-6.2305-6.2305zm-43.77 15.773c-5.25 0-9.543-4.2695-9.543-9.543 0-5.2695 4.2695-9.543 9.543-9.543 5.2695 0 9.543 4.2695 9.543 9.543 0 5.2695-4.2695 9.543-9.543 9.543z"/>
</svg>
