<svg xmlns="http://www.w3.org/2000/svg" version="1.1" viewBox="-5.0 -10.0 110.0 135.0">
 <path fill="#ff5353" d="m26.051 35.66c0-6.5312-3.6719-12.5-7.1016-17.578-1.4219-2.1016-4.2812-2.6484-6.3789-1.2305-2.1016 1.4219-2.6484 4.2812-1.2305 6.3789 2.6602 3.9492 5.5312 8.5 5.5312 12.441 0 4.1406-2.6094 8.1211-5.3594 12.352-3.2812 5.0312-6.9883 10.73-6.9883 17.852 0 6.0781 2.5898 10.121 5.1016 14.039 0.37109 0.58984 0.75 1.1797 1.1289 1.7891 1.3008 2.1797 4.1094 2.8984 6.3008 1.6016 2.1797-1.3008 2.8984-4.1094 1.6016-6.3008-0.03125-0.050781-0.058594-0.10156-0.10156-0.16016-0.41016-0.66016-0.82031-1.2891-1.2109-1.9102-2.1992-3.4297-3.6484-5.6914-3.6484-9.0781 0-4.3906 2.6797-8.5 5.5117-12.828 3.2109-4.9219 6.8516-10.488 6.8516-17.371z"/>
 <path fill="#ff5353" d="m60.281 35.66c0-6.5312-3.6602-12.5-7.1016-17.578-1.4219-2.1016-4.2812-2.6484-6.3789-1.2305-2.1016 1.4219-2.6484 4.2812-1.2305 6.3789 2.6797 3.9492 5.5312 8.5 5.5312 12.441 0 4.1406-2.6094 8.1211-5.3594 12.352-3.2812 5.0312-7 10.73-7 17.852 0 6.0781 2.6016 10.121 5.1016 14.039 0.37109 0.58984 0.76172 1.1797 1.1406 1.7891 0.83984 1.3516 2.3203 2.1797 3.9102 2.1719 2.5391 0 4.5898-2.0586 4.5898-4.5898 0-0.85938-0.23828-1.6992-0.69922-2.4297-0.41016-0.66016-0.82031-1.2891-1.2109-1.9102-2.1992-3.4297-3.6602-5.6914-3.6602-9.0781 0-4.3906 2.6797-8.5 5.5117-12.828 3.2109-4.9219 6.8516-10.488 6.8516-17.371z"/>
 <path fill="#ff5353" d="m85.809 74.941c-2.1992-3.4297-3.6602-5.6914-3.6602-9.0781 0-4.3906 2.6797-8.5 5.5117-12.828 3.2109-4.9297 6.8516-10.512 6.8516-17.371 0-6.8594-3.6719-12.5-7.1016-17.578-1.4219-2.1016-4.2812-2.6484-6.3789-1.2305-2.1016 1.4219-2.6484 4.2812-1.2305 6.3789 2.6797 3.9492 5.5312 8.5 5.5312 12.441 0 4.1406-2.6094 8.1211-5.3594 12.352-3.2812 5.0312-6.9883 10.73-6.9883 17.852 0 6.0781 2.5898 10.121 5.1016 14.039 0.37109 0.58984 0.75 1.1797 1.1406 1.7891 1.3008 2.1797 4.1094 2.8984 6.2891 1.6016 2.1797-1.3008 2.8984-4.1094 1.6016-6.2891-0.03125-0.050781-0.058594-0.10938-0.10156-0.16016-0.41016-0.64844-0.82031-1.2812-1.2109-1.8984z"/>
</svg>